<?xml version="1.0" encoding="utf-8"?>
<!-- Generator: Adobe Illustrator 19.2.1, SVG Export Plug-In . SVG Version: 6.00 Build 0)  -->
<svg version="1.1" id="Layer_1" xmlns="http://www.w3.org/2000/svg" xmlns:xlink="http://www.w3.org/1999/xlink" x="0px" y="0px"
	 viewBox="0 0 360 270" style="enable-background:new 0 0 360 270;" xml:space="preserve">
<style type="text/css">
	.st0{fill:none;stroke:#BD2026;stroke-width:2.9414;stroke-linecap:round;stroke-linejoin:round;stroke-miterlimit:10;}
</style>
<g>
	<g>
		<g>
			<g>
				<g>
					<g>
						<g>
							<path class="st0" d="M171.3,75.3V63.4c3.4,0,6.2-2.8,6.2-6.2h7.4c0,2.1,1,3.9,2.6,5c1,0.7,2.2,1.1,3.6,1.1
								c3.4,0,6.2-2.8,6.2-6.2h7.4c0,2.1,1,3.9,2.6,5c0.8,0.5,1.7,0.9,2.7,1c0.3,0,0.5,0.1,0.9,0.1l0,0l0,0c0.2,0,0.4,0,0.6,0l0,0
								c1-0.1,1.9-0.5,2.7-1c0.2-0.1,0.4-0.3,0.6-0.5c1.2-1,2-2.4,2.2-4c0-0.2,0-0.5,0-0.7h7.4c0,2.1,1,3.9,2.6,5
								c0.5,0.4,1.1,0.6,1.7,0.8c0.6,0.2,1.2,0.3,1.9,0.3c0.6,0,1.2-0.1,1.8-0.3c2.5-0.8,4.4-3.1,4.4-5.9h7.3c0,2.1,1,3.9,2.6,5
								c1,0.7,2.2,1.1,3.6,1.1l0,0c0.8,0,1.5-0.2,2.2-0.4c0.9-0.3,1.6-0.8,2.3-1.5c1.1-1.1,1.7-2.6,1.7-4.3h7.4c0,2.1,1,3.9,2.6,5
								c1,0.7,2.3,1.1,3.6,1.1c3.4,0,6.2-2.8,6.2-6.2h7.4c0,2.1,1,3.9,2.6,5c1,0.7,2.2,1.1,3.6,1.1v145.9c-3.4,0-6.2,2.8-6.2,6.2
								c0,0.3,0.1,0.5,0.1,0.8h-7.5c0-0.3,0.1-0.5,0.1-0.8c0-2.1-1-3.9-2.6-5c-1-0.7-2.3-1.2-3.6-1.2c-3.4,0-6.2,2.8-6.2,6.2
								c0,0.3,0,0.5,0.1,0.8h-7.5c0-0.3,0.1-0.5,0.1-0.8c0-2.1-1-3.9-2.6-5c-1-0.7-2.2-1.1-3.6-1.1c-3.4,0-6.2,2.7-6.2,6.2
								c0,0.3,0.1,0.5,0.1,0.8h-7.5c0-0.3,0.1-0.5,0.1-0.8c0-2.1-1-3.9-2.6-5c-0.4-0.3-1.7-1.2-3.6-1.2c-3.4,0-6.2,2.8-6.2,6.2
								c0,0.3,0.1,0.5,0.1,0.8h-7.5c0-0.3,0.1-0.5,0.1-0.8c0-2.1-1-3.9-2.6-5c-0.3-0.2-0.5-0.4-0.8-0.5c-0.3-0.2-0.6-0.3-0.9-0.4
								c-0.3-0.1-0.6-0.2-0.9-0.2c-0.3-0.1-0.6-0.1-0.9-0.1h-0.1c-3.4,0-6.2,2.7-6.2,6.2c0,0.3,0,0.5,0.1,0.8h-7.5
								c0-0.3,0.1-0.5,0.1-0.8c0-2.1-1-3.9-2.6-5c-1-0.7-2.2-1.1-3.6-1.1c-3.4,0-6.2,2.8-6.2,6.2c0,0.3,0.1,0.5,0.1,0.8h-7.5
								c0-0.3,0.1-0.5,0.1-0.8c0-2.1-1-3.9-2.6-5c-1-0.7-2.3-1.1-3.6-1.1v-39.2"/>
						</g>
					</g>
				</g>
			</g>
		</g>
	</g>
	<g>
		<line class="st0" x1="199.5" y1="140" x2="266.2" y2="140"/>
		<line class="st0" x1="199.6" y1="161.9" x2="266.3" y2="161.9"/>
		<line class="st0" x1="199.6" y1="183.8" x2="266.3" y2="183.8"/>
	</g>
	<g>
		<g>
			<path class="st0" d="M185.3,144.3l4.5-4.4c8.4-6.6,14.2-17.1,14.2-28.7 M128.4,185.3l6.1,5.7c2,1.9,4.7,3,7.5,3h0.2
				c3,0,5.7-1.3,7.8-3.4c2-2.1,3.1-4.9,3-7.8c0.1,0,0.2,0,0.4,0c3,0,5.7-1.2,7.8-3.4c2-2.1,3.1-4.8,3-7.7c0.1,0,0.3,0,0.5,0
				c3,0,5.7-1.2,7.8-3.4c2-2.1,3.1-4.9,3-7.8c0.1,0,0.3,0,0.4,0c3,0,5.7-1.2,7.8-3.4c3.8-3.9,4-9.9,0.7-14.1 M133.6,92.5l4.7-5.1
				c7.1-8.6,18.3-12.3,29.7-12.3c19.9,0,36.1,16.1,36.1,36 M133.6,92.5L103.8,122c-1.2,1.1-2,2.7-2,4.5c0,3.4,2.8,6.2,6.2,6.2
				c0.2,0,0.3,0,0.5,0l0,0c0.1,0,0.3-0.1,0.4-0.1c0.2,0,0.3-0.1,0.5-0.1c5-1,14.3-11,22.8-16.3c4.8-3,7.7-3.9,12.9-3.9
				c4.4,0,8.4,1.7,11.4,4.4c0.4,0.3,0.7,0.6,1.2,1l18.2,17.5l0,0l8.5,7.8"/>
			<g>
				<path class="st0" d="M71.9,115.5c0,11.6,5.8,22.1,14.2,28.7l4.8,4.7 M71.9,115.5c0-19.9,16.1-36,36.1-36c10.4,0,20.5,3,27.6,10"
					/>
			</g>
			<path class="st0" d="M106.3,152l-7.6,7.6c-2.5,2.5-6.6,2.5-9.2,0l0,0c-2.5-2.5-2.5-6.6,0-9.2l7.6-7.6c2.5-2.5,6.6-2.5,9.2,0l0,0
				C108.8,145.4,108.8,149.5,106.3,152z"/>
			<path class="st0" d="M115.5,161.2l-7.6,7.6c-2.5,2.5-6.6,2.5-9.2,0l0,0c-2.5-2.5-2.5-6.6,0-9.2l7.6-7.6c2.5-2.5,6.6-2.5,9.2,0
				l0,0C118.1,154.6,118.1,158.7,115.5,161.2z"/>
			<path class="st0" d="M124.7,170.4l-7.6,7.6c-2.5,2.5-6.6,2.5-9.2,0l0,0c-2.5-2.5-2.5-6.6,0-9.2l7.6-7.6c2.5-2.5,6.6-2.5,9.2,0
				l0,0C127.2,163.8,127.2,167.9,124.7,170.4z"/>
			<path class="st0" d="M133.9,179.6l-7.6,7.6c-2.5,2.5-6.6,2.5-9.2,0l0,0c-2.5-2.5-2.5-6.6,0-9.2l7.6-7.6c2.5-2.5,6.6-2.5,9.2,0
				l0,0C136.4,172.9,136.4,177.1,133.9,179.6z"/>
			<line class="st0" x1="153" y1="182.9" x2="133.5" y2="163.3"/>
		</g>
		<line class="st0" x1="164.2" y1="171.6" x2="144.8" y2="152.1"/>
		<line class="st0" x1="175.5" y1="160.5" x2="156.1" y2="140.9"/>
	</g>
	<g>
		<line class="st0" x1="232.9" y1="102.1" x2="260.9" y2="102.1"/>
		<line class="st0" x1="232.9" y1="111.3" x2="260.9" y2="111.3"/>
		<path class="st0" d="M266.4,89.6c-2.8-1.5-5.9-2.4-9.3-2.4c-10.7,0-19.4,8.7-19.4,19.4s8.7,19.4,19.4,19.4c3.4,0,6.6-0.9,9.3-2.4"
			/>
	</g>
</g>
</svg>
