<?xml version="1.0" encoding="utf-8"?>
<!-- Generator: Adobe Illustrator 19.2.1, SVG Export Plug-In . SVG Version: 6.00 Build 0)  -->
<svg version="1.1" id="Layer_1" xmlns="http://www.w3.org/2000/svg" xmlns:xlink="http://www.w3.org/1999/xlink" x="0px" y="0px"
	 viewBox="0 0 360 270" style="enable-background:new 0 0 360 270;" xml:space="preserve">
<style type="text/css">
	.st0{fill:none;stroke:#BD2026;stroke-width:2.4088;stroke-linecap:round;stroke-linejoin:round;stroke-miterlimit:10;}
	.st1{fill:none;}
</style>
<g>
	<path class="st0" d="M319.8,182.5l9.1,9c6.5,6.4,17,6.2,23.4-0.3s6.2-17-0.3-23.4l-8.4-8.3"/>
	<path class="st0" d="M266.2,176.9c1.4,0.2,2.6,0.7,3.5,1.1c2.7,1.2,4.7,4.8,6.4,8.4c2.3,5.1,5.3,11.3,12.4,11.3c0.4,0,1,0,1.5-0.1
		c6.9-0.7,13.1-5.2,15.6-11.5c2.1-5.3,1.3-10.9-2.4-15.3c-6.2-7.4-1.5-12.6-0.4-13.9c3.3-3.3,7-3,10.1-1.4c-5.1,6.6-4.5,16,1.6,21.9
		l5.3,5.1c0,0,0,0,0.1,0s0.2,0,0.3,0c0.3,0,0.6,0,1.1,0c1,0,2.4-0.1,4.1-0.5c3.3-0.7,7.5-2.4,11.3-6.3c7.1-7.3,6.9-15.3,6.9-16.2
		l-5.9-5.8c-6-5.8-15.2-6.2-21.7-1.2c0,0-2.3,1.9-3.1,3 M320,164c-1.1-1.1-1.1-2.9-0.1-4c1.1-1.1,2.9-1.1,4-0.1l3.4,3.3
		c1.1,1.1,1.1,2.9,0.1,4c-1.1,1.1-2.9,1.1-4,0.1L320,164z"/>
	<g>
		<path class="st0" d="M132.4,152.5c-3.4,0-6.2-2.8-6.2-6.2v-38.4c0-3.4,2.8-6.2,6.2-6.2H196c3.4,0,6.2,2.8,6.2,6.2v38.4
			c0,3.4-2.8,6.2-6.2,6.2H132.4z"/>
		<path class="st0" d="M265.7,66.6v127.2l-0.4-0.5H74.9v-11.5h177.6c3.9,0,7.1-3.2,7.1-7.1V70.4c0.1-4-3.1-7.1-7-7.1H70
			c-3.9,0-7.1,3.2-7.1,7.1v38.8h-6V66.6c0-5.1,4.2-9.3,9.3-9.3h190.2C261.5,57.3,265.7,61.5,265.7,66.6z"/>
	</g>
	<path class="st0" d="M252.6,63.3H70c-3.9,0-7.1,3.2-7.1,7.1v38.8h3.2c0.1,0,0.2,0,0.4,0h0.1c0.3,0,0.5,0,0.8,0.1
		c1.2,0.2,2.3,0.6,3.3,1.2c0.2,0.1,0.5,0.3,0.7,0.5c0.3,0.2,0.7,0.5,1,0.8c1.5,1.5,2.5,3.6,2.6,5.9c0,0.1,0,0.3,0,0.5v63.7h177.6
		c3.9,0,7.1-3.2,7.1-7.1V70.4C259.7,66.4,256.5,63.3,252.6,63.3z M202.2,146.3c0,3.4-2.8,6.2-6.2,6.2h-63.6c-3.4,0-6.2-2.8-6.2-6.2
		v-38.4c0-3.4,2.8-6.2,6.2-6.2H196c3.4,0,6.2,2.8,6.2,6.2V146.3z"/>
	<path class="st0" d="M202.2,107.9v38.4c0,3.4-2.8,6.2-6.2,6.2h-63.6c-3.4,0-6.2-2.8-6.2-6.2v-38.4c0-3.4,2.8-6.2,6.2-6.2H196
		C199.4,101.7,202.2,104.5,202.2,107.9z"/>
	<polygon class="st0" points="279.7,208.7 74.9,208.7 74.9,193.3 265.3,193.3 265.7,193.8 	"/>
	<path class="st0" d="M74.9,208.7v11.5H271c5.1,0,8.7-2.6,8.7-6.5v-5H74.9z M257.3,217.3c-1.6,0-2.8-1.3-2.8-2.8
		c0-1.6,1.3-2.8,2.8-2.8s2.8,1.3,2.8,2.8C260.2,216,258.9,217.3,257.3,217.3z M267.7,217.3c-1.6,0-2.8-1.3-2.8-2.8
		c0-1.6,1.3-2.8,2.8-2.8c1.6,0,2.8,1.3,2.8,2.8S269.2,217.3,267.7,217.3z"/>
	<path class="st0" d="M207.4,160.5l6.4,6.4l2.6,2.6c0.7,0.7,1.8,0.7,2.6,0l19.7-21.5"/>
	<g>
		<g>
			<g>
				<line class="st0" x1="202.2" y1="114.5" x2="126.2" y2="114.5"/>
				<path class="st0" d="M202.2,124.4v21.9c0,3.4-2.8,6.2-6.2,6.2h-63.6c-3.4,0-6.2-2.8-6.2-6.2v-21.9H202.2z"/>
			</g>
			<line class="st0" x1="158.1" y1="133" x2="129.2" y2="133"/>
			<rect x="183.8" y="134.7" class="st0" width="9.9" height="9.9"/>
		</g>
	</g>
	<g>
		<g>
			<line class="st0" x1="323.6" y1="142.2" x2="323.6" y2="131.1"/>
		</g>
		<g>
			<line class="st0" x1="334.3" y1="146.2" x2="342.1" y2="138.3"/>
		</g>
		<g>
			<line class="st0" x1="313.2" y1="147" x2="305.3" y2="139.1"/>
		</g>
	</g>
	<path class="st0" d="M50,159.5v5.1h5.1v-5.1H50z M50,159.5v5.1h5.1v-5.1H50z M50,159.5v5.1h5.1v-5.1H50z M50,159.5v5.1h5.1v-5.1H50
		z M50,159.5v5.1h5.1v-5.1H50z"/>
	<path class="st0" d="M74.9,117.6c-0.1-2.3-1-4.4-2.6-5.9c-0.3-0.3-0.6-0.6-1-0.8c-0.2-0.2-0.5-0.3-0.7-0.5c-1-0.6-2.1-1-3.3-1.2
		c-0.2,0-0.3,0-0.5,0c-0.1,0-0.2,0-0.3,0h-0.1c-0.1,0-0.2,0-0.4,0H13.6c-4.9,0-8.9,4-8.9,8.9v103c0,4.9,4,8.9,8.9,8.9H66
		c4.9,0,8.9-4,8.9-8.9v-103C74.9,118,74.9,117.8,74.9,117.6z M44.9,221.2c0,2.7-2.3,5-5.1,5s-5-2.3-5-5.1V221c0-0.2,0-0.3,0-0.5
		c0.3-2.5,2.5-4.5,5.1-4.5c0.4,0,0.7,0,1,0.1c1.6,0.3,2.9,1.4,3.6,2.9c0.2,0.3,0.2,0.6,0.3,1c0.1,0.3,0.1,0.7,0.1,1
		C44.9,221,44.9,221.2,44.9,221.2z M69.4,212.2H10.3v-93.9h59.1V212.2z"/>
	<path class="st0" d="M10.3,118.3v93.9h59.1v-93.9C69.4,118.3,10.3,118.3,10.3,118.3z M20.3,165.5v-19.8c0-1.8,1.4-3.2,3.2-3.2h32.8
		c0.2,0,0.4,0,0.6,0.1c1.5,0.3,2.6,1.6,2.6,3.1v19.8c0,1.6-1.1,2.8-2.6,3.1c-0.2,0-0.4,0.1-0.6,0.1H23.5
		C21.7,168.7,20.3,167.2,20.3,165.5z"/>
	<rect x="20.3" y="149.1" class="st0" width="39.2" height="5.1"/>
	<path class="st0" d="M53.2,179.7L39,195.2c-0.5,0.5-1.3,0.5-1.8,0l-1.8-1.8l-4.6-4.6"/>
	<path class="st1" d="M39.9,111.6c-1.2,0-2.1,0.9-2.1,2.1s0.9,2.1,2.1,2.1c1.2,0,2.1-0.9,2.1-2.1C42,112.6,41,111.7,39.9,111.6z"/>
</g>
<line class="st0" x1="24.5" y1="159.8" x2="34.4" y2="159.8"/>
</svg>
