<?xml version="1.0" encoding="utf-8"?>
<!-- Generator: Adobe Illustrator 19.2.1, SVG Export Plug-In . SVG Version: 6.00 Build 0)  -->
<svg version="1.1" id="Layer_1" xmlns="http://www.w3.org/2000/svg" xmlns:xlink="http://www.w3.org/1999/xlink" x="0px" y="0px"
	 viewBox="0 0 360 270" style="enable-background:new 0 0 360 270;" xml:space="preserve">
<style type="text/css">
	.st0{fill:none;stroke:#BD2026;stroke-width:2.477;stroke-linecap:round;stroke-linejoin:round;stroke-miterlimit:10;}
	.st1{fill:#BD2026;stroke:#BD2026;stroke-width:1.6513;stroke-linecap:round;stroke-linejoin:round;stroke-miterlimit:10;}
	.st2{fill:#BD2026;}
</style>
<g>
	<g>
		<path class="st0" d="M252.9,130.5v29.6c-0.9-0.5-1.9-0.7-2.9-0.7h-2.9v-22.5h-75.4v-6.2c0.5-0.1,1.1-0.2,1.7-0.2H252.9z"/>
		<path class="st0" d="M250,172.4c1.1,0,2-0.3,2.9-0.7v21.6h-5.8v-20.9H250z"/>
		<path class="st0" d="M210.4,161.3c-1.2,1.2-1.9,2.8-1.9,4.6c0,3.6,2.9,6.5,6.5,6.5h32.1v27.3h-75.4v-62.7h75.4v22.5H215
			C213.2,159.4,211.6,160.1,210.4,161.3z"/>
		<path class="st0" d="M256.5,165.9c0,1.8-0.7,3.4-1.9,4.6c-0.5,0.5-1,0.9-1.7,1.2c-0.9,0.5-1.9,0.7-2.9,0.7h-35
			c-3.6,0-6.5-2.9-6.5-6.5c0-1.8,0.7-3.4,1.9-4.6c1.2-1.2,2.8-1.9,4.6-1.9h35c1.1,0,2,0.3,2.9,0.7
			C255,161.2,256.5,163.4,256.5,165.9z"/>
	</g>
	<g>
		<g>
			<path class="st0" d="M234.6,75.8c0,15.2-12.4,27.6-27.6,27.6c-6.3,0-12.2-2.1-16.8-5.7"/>
			<g>
				<path class="st1" d="M233.1,71.3l-4.1,4.3l0,0c-0.1,0.1-0.2,0.3-0.2,0.6c0,0.4,0.4,0.8,0.8,0.8c0.1,0,0.2,0,0.3-0.1c0,0,0,0,0,0
					c1.6-0.5,3.5-1,4.7-1v-5.3C234.1,70.7,233.6,70.9,233.1,71.3z"/>
				<path class="st1" d="M236.2,71.3l4.1,4.3l0,0c0.1,0.1,0.2,0.3,0.2,0.6c0,0.4-0.4,0.8-0.8,0.8c-0.1,0-0.2,0-0.3-0.1c0,0,0,0,0,0
					c-1.6-0.5-3.5-1-4.7-1v-5.3C235.2,70.7,235.7,70.9,236.2,71.3z"/>
			</g>
		</g>
		<g>
			<path class="st0" d="M182.4,77.7c0-15.2,12.4-27.6,27.6-27.6c6.3,0,12.2,2.1,16.8,5.7"/>
			<g>
				<path class="st1" d="M183.9,82.3l4.1-4.3l0,0c0.1-0.1,0.2-0.3,0.2-0.6c0-0.4-0.4-0.8-0.8-0.8c-0.1,0-0.2,0-0.3,0.1c0,0,0,0,0,0
					c-1.6,0.5-3.5,1-4.7,1v5.3C182.9,82.9,183.4,82.7,183.9,82.3z"/>
				<path class="st1" d="M180.8,82.3l-4.1-4.3l0,0c-0.1-0.1-0.2-0.3-0.2-0.6c0-0.4,0.4-0.8,0.8-0.8c0.1,0,0.2,0,0.3,0.1c0,0,0,0,0,0
					c1.6,0.5,3.5,1,4.7,1v5.3C181.8,82.9,181.3,82.7,180.8,82.3z"/>
			</g>
		</g>
	</g>
	<g>
		<path class="st0" d="M162.6,85.5h-53.9c-5.1,0-9.2,4.1-9.2,9.2v105.9c0,5.1,4.1,9.2,9.2,9.2h53.9c5.1,0,9.2-4.1,9.2-9.2V94.7
			C171.8,89.7,167.7,85.5,162.6,85.5z M166,191.4h-60.8V94.9H166V191.4z"/>
		<rect x="105.3" y="94.9" class="st0" width="60.8" height="96.5"/>
		<rect x="105.3" y="94.9" class="st0" width="60.8" height="96.5"/>
	</g>
	<g>
		<line class="st0" x1="120.6" y1="139.3" x2="144.1" y2="139.3"/>
		<line class="st0" x1="120.6" y1="147" x2="144.1" y2="147"/>
		<path class="st0" d="M148.8,128.8c-2.3-1.3-5-2-7.9-2c-9,0-16.4,7.3-16.4,16.4c0,9,7.3,16.4,16.4,16.4c2.8,0,5.5-0.7,7.9-2"/>
	</g>
	
		<ellipse transform="matrix(3.171540e-03 -1 1 3.171540e-03 -65.4103 335.6604)" class="st0" cx="135.7" cy="200.6" rx="5.2" ry="5.2"/>
	
		<ellipse transform="matrix(3.171540e-03 -1 1 3.171540e-03 45.022 225.5784)" class="st2" cx="135.7" cy="90.2" rx="2.2" ry="2.2"/>
</g>
</svg>
