<?xml version="1.0" encoding="utf-8"?>
<!-- Generator: Adobe Illustrator 19.2.1, SVG Export Plug-In . SVG Version: 6.00 Build 0)  -->
<svg version="1.1" id="Layer_1" xmlns="http://www.w3.org/2000/svg" xmlns:xlink="http://www.w3.org/1999/xlink" x="0px" y="0px"
	 viewBox="0 0 360 270" style="enable-background:new 0 0 360 270;" xml:space="preserve">
<style type="text/css">
	.st0{fill:none;stroke:#BD2026;stroke-width:2.483;stroke-linecap:round;stroke-linejoin:round;stroke-miterlimit:10;}
	.st1{fill:#BD2026;}
	.st2{fill:#BD2026;stroke:#BD2026;stroke-width:1.6553;stroke-linecap:round;stroke-linejoin:round;stroke-miterlimit:10;}
</style>
<g>
	<g>
		<rect x="175.4" y="148.1" class="st0" width="100.9" height="54.6"/>
		<rect x="167.8" y="139.8" class="st0" width="116" height="8.3"/>
		<path class="st0" d="M190.1,157.5v39.6h-7.6v-39.6c0-2,1.7-3.6,3.8-3.6C188.4,153.8,190.1,155.5,190.1,157.5z"/>
		<path class="st0" d="M206.8,157.5v39.6h-7.6v-39.6c0-2,1.7-3.6,3.8-3.6C205.2,153.8,206.8,155.5,206.8,157.5z"/>
		<path class="st0" d="M234.5,157.5v39.6h-18.1v-39.6c0-2,4.1-3.6,9.1-3.6C230.5,153.8,234.5,155.5,234.5,157.5z"/>
		<path class="st0" d="M251.5,157.5v39.6h-7.6v-39.6c0-2,1.7-3.6,3.8-3.6C249.8,153.8,251.5,155.5,251.5,157.5z"/>
		<path class="st0" d="M268.3,157.5v39.6h-7.6v-39.6c0-2,1.7-3.6,3.8-3.6C266.6,153.8,268.3,155.5,268.3,157.5z"/>
		<rect x="167.8" y="202.7" class="st0" width="116" height="5.5"/>
		<rect x="162.9" y="208.2" class="st0" width="125.8" height="10.3"/>
	</g>
	<g>
		<path class="st1" d="M184.5,116.7h8.4c2,0,4.8,0,6.1,0.8c1.5,0.9,2.7,2.5,2.7,4.8c0,2.5-1.3,4.3-3.4,5.2v0.1
			c2.8,0.6,4.4,2.7,4.4,5.6c0,3.4-2.5,6.6-7,6.6h-11.2V116.7z M187.6,126.6h6.1c3.5,0,4.9-1.2,4.9-3.7c0-3.2-2.2-3.7-4.9-3.7h-6.1
			V126.6z M187.6,137.2h7.7c2.7,0,4.3-1.6,4.3-4.1c0-3-2.4-3.9-5-3.9h-7V137.2z"/>
		<path class="st1" d="M213,116.7h3.4l9,23.1H222l-2.5-7h-9.8l-2.6,7H204L213,116.7z M210.7,130.3h7.8l-3.9-10.8h-0.1L210.7,130.3z"
			/>
		<path class="st1" d="M227.7,116.7h3.3l12.2,18.7h0.1v-18.7h2.9v23.1h-3.4l-12.1-18.5h-0.1v18.5h-2.9V116.7z"/>
		<path class="st1" d="M251.1,116.7h3.1v11.5l11.7-11.5h4l-9.7,9.3l10.1,13.8h-3.9l-8.4-11.7l-3.9,3.6v8.1H251L251.1,116.7
			L251.1,116.7z"/>
	</g>
	<g>
		<g>
			<path class="st0" d="M221.8,91.3c0-19.7-16-35.7-35.7-35.7c-8.2,0-15.7,2.8-21.8,7.4"/>
			<g>
				<path class="st2" d="M219.8,97.2l-5.3-5.6l0,0c-0.2-0.2-0.3-0.4-0.3-0.7c0-0.6,0.5-1,1-1c0.1,0,0.3,0,0.4,0.1l0,0
					c2.1,0.7,4.5,1.3,6.1,1.3V98C221.1,97.9,220.4,97.7,219.8,97.2z"/>
				<path class="st2" d="M223.8,97.2l5.3-5.6l0,0c0.2-0.2,0.3-0.4,0.3-0.7c0-0.6-0.5-1-1-1c-0.1,0-0.3,0-0.4,0.1l0,0
					c-2.1,0.7-4.5,1.3-6.1,1.3V98C222.5,97.9,223.2,97.7,223.8,97.2z"/>
			</g>
		</g>
	</g>
	<g>
		<g>
			<g>
				<path class="st0" d="M138.5,180.6h-54c-5.1,0-9.2-4.1-9.2-9.2V65.3c0-5.1,4.1-9.2,9.2-9.2h54c5.1,0,9.2,4.1,9.2,9.2v106.1
					C147.7,176.5,143.6,180.6,138.5,180.6z"/>
				<rect x="81.1" y="65.5" class="st0" width="60.9" height="96.8"/>
			</g>
			
				<ellipse transform="matrix(3.171524e-03 -1 1 3.171524e-03 -60.3144 282.4855)" class="st0" cx="111.5" cy="171.5" rx="5.2" ry="5.2"/>
			
				<ellipse transform="matrix(3.171524e-03 -1 1 3.171524e-03 50.3856 172.1367)" class="st1" cx="111.5" cy="60.8" rx="2.2" ry="2.2"/>
		</g>
		<g>
			<rect x="81.1" y="85.3" class="st0" width="60.9" height="56.7"/>
			<line class="st0" x1="94.9" y1="103.9" x2="131.9" y2="103.9"/>
			<line class="st0" x1="94.9" y1="114.4" x2="131.9" y2="114.4"/>
			<circle class="st1" cx="90.2" cy="104.1" r="1.7"/>
			<circle class="st1" cx="90.2" cy="114.3" r="1.7"/>
			<line class="st0" x1="94.9" y1="124.7" x2="131.9" y2="124.7"/>
			<circle class="st1" cx="90.2" cy="124.6" r="1.7"/>
		</g>
	</g>
</g>
</svg>
