<?xml version="1.0" encoding="utf-8"?>
<!-- Generator: Adobe Illustrator 19.2.1, SVG Export Plug-In . SVG Version: 6.00 Build 0)  -->
<svg version="1.1" id="svg4722" xmlns:svg="http://www.w3.org/2000/svg"
	 xmlns="http://www.w3.org/2000/svg" xmlns:xlink="http://www.w3.org/1999/xlink" x="0px" y="0px" viewBox="0 0 817.3 274"
	 style="enable-background:new 0 0 817.3 274;" xml:space="preserve">
<style type="text/css">
	.st0{fill:#EE7F00;}
	.st1{fill:#383A41;}
</style>
<g id="layer1" transform="translate(85.788367,-282.23124)">
	<path id="path66" class="st0" d="M186.2,293.2c-11,0-21.7,2.5-31.8,7.3c-14.4,6.8-27.4,18.1-38,33.2c-6.9,9.8-12.8,21.1-17.5,33.8
		c-8.7,23.9-8.6,43.3,0.3,56.1c5.1,7.2,15.6,15.9,37,15.9h0.1c39,0,68.1-25.5,86.5-75.9c4.9-13.3,11.3-38.2-0.4-55
		C215.2,298.4,203.1,293.2,186.2,293.2L186.2,293.2z M421.3,293.2c-11,0-21.7,2.5-31.8,7.3c-14.4,6.8-27.4,18.1-38,33.2
		c-6.9,9.8-12.8,21.1-17.5,33.8c-8.7,23.9-8.6,43.3,0.3,56.1c5.1,7.2,15.6,15.9,37,15.9h0.1c39,0,68.1-25.5,86.5-75.9
		c4.9-13.3,11.3-38.2-0.4-55C450.3,298.4,438.2,293.2,421.3,293.2z M61.1,295.3c-12.8,0-25.3,0-36.4,5.7c-11.2,5.7-21,17-28.6,39.7
		c-1.6,4.9-2.5,9.1-2.6,12.7c-0.1,3.7,0.5,6.8,1.9,9.5c1.7,3.3,4.5,6.4,7.9,9c3.5,2.6,7.6,4.7,12.1,6.1c0.2,0,2.5,0.7,5.4,1.5
		c2.8,0.8,6.1,1.8,8.2,2.4c1.2,0.4,2.6,0.9,3.8,1.6c1.2,0.7,2.3,1.7,3,3.1c0.5,0.9,0.7,1.9,0.7,2.9c0,1.1-0.1,2.2-0.6,3.4
		c-1,3.1-2.6,5.1-5.6,6.3c-3,1.2-7.4,1.6-14.1,1.7h-83.7l-13.2,36.3H8.8c8.4,0,23.8,0,38.7-6.3c14.8-6.3,29-18.9,35-44
		c2.3-9.5,1.6-17.2-2.1-23.2c-3.7-6-10.4-10.4-20.2-13.2c0,0-2.2-0.6-4.8-1.4c-2.6-0.7-5.5-1.6-7-2c-2.5-0.7-4.4-2.2-5.6-4
		c-1.1-1.8-1.5-4.1-0.8-6.4c0.7-2.4,2.3-4.3,4.6-5.6c2.4-1.3,5.5-2,9.1-2h52.1c0.4-0.5,0.7-1.1,1.1-1.6c9.5-13.5,21-24.3,33.6-32
		H61.1z M295.1,295.3c-23.2,0-40.4,11.7-48.6,33.7l-39.4,108.2h43.1l20.2-55.6l38.1,0l10.8-29.8l-38,0l6.1-17.2
		c1.3-3.1,4.3-5.5,8.8-5.5c2.5,0,30.5,0,44.9,0c0.4-0.5,0.7-1.1,1.1-1.6c9.5-13.5,23-24.3,35.6-32L295.1,295.3L295.1,295.3z
		 M495.2,295.3l-51.6,141.8h43.9l18.8-49.9c0.9,2.1,12,49.9,12,49.9h46.1c0,0-8.4-35.2-14.6-49.4c-1.6-3.7-3.2-7.7-5.5-11.2
		c13-4.8,31.9-15.2,39.7-36.3c4.8-12.9,4.5-23.4-0.8-31.1c-6.5-9.3-19.6-13.9-40.3-13.9H495.2L495.2,295.3z M585.2,295.3
		c2.8,2.2,5.2,4.7,7.2,7.6c5.1,7.4,7.1,16.1,5.9,26.1h26.1L585,437.2h39.3L663.7,329h50.5l12.3-33.7H585.2z M524.1,324.6h7.2
		c13.2,0,18.2,3.9,13.7,16c-4.2,11.3-11.8,18.3-26.2,18.3h-0.1l-7.4,0L524.1,324.6L524.1,324.6z M175.9,325.3L175.9,325.3
		c13.5,0,16.6,7.8,4.7,40.2h0c-12.2,33.3-21,41.6-34.3,41.6h0c-12.9,0-17.5-8.2-5.4-41.3C150,341.1,161.7,325.3,175.9,325.3
		L175.9,325.3z M411,325.3L411,325.3c13.5,0,16.6,7.8,4.7,40.2c-12.1,33.3-21,41.6-34.2,41.6h0c-12.9,0-17.5-8.2-5.4-41.3
		C385.1,341.1,396.8,325.3,411,325.3L411,325.3z"/>
	<path id="path98" class="st1" d="M-38.1,452.1c-2.8,0-4.8,0.5-6.2,1.5c-1.4,1-2.5,2.8-3.5,5.4c-0.9,2.5-1,4.2-0.4,5.2
		c0.6,1,2.3,1.5,5.1,1.5c2.8,0,4.9-0.5,6.2-1.5c1.4-1,2.5-2.8,3.4-5.3c0.9-2.5,1.1-4.2,0.4-5.2C-33.6,452.6-35.3,452.1-38.1,452.1z
		 M-14.4,452.1c-2.8,0-4.9,0.5-6.2,1.5c-1.4,1-2.5,2.8-3.4,5.4c-0.9,2.5-1,4.2-0.4,5.2c0.6,1,2.3,1.5,5.1,1.5c2.8,0,4.9-0.5,6.3-1.5
		c1.4-1,2.5-2.8,3.5-5.3c0.9-2.5,1.1-4.2,0.4-5.2C-9.9,452.6-11.6,452.1-14.4,452.1z M429.6,470.6c-3.2,0-6.4,0.4-9.6,1.2
		c-3.2,0.8-6.2,2.1-8.9,3.8c-2.7,1.7-5.2,3.8-7.4,6.4c-2.2,2.6-3.9,5.5-5.1,8.9c-1.1,2.9-1.6,5.5-1.4,7.6c0.1,2.1,0.6,3.9,1.4,5.5
		c0.8,1.5,1.9,2.9,3.3,4c1.4,1.1,2.8,2.1,4.4,3c1.6,0.9,3.1,1.7,4.6,2.5c1.5,0.8,2.8,1.6,3.8,2.5c1.1,0.9,1.8,1.9,2.3,3
		c0.5,1.1,0.4,2.5-0.2,4.1c-0.5,1.4-1.2,2.6-2.1,3.8c-0.9,1.1-2,2.1-3.2,2.8c-1.2,0.8-2.6,1.4-4.2,1.8c-1.5,0.4-3.2,0.6-4.9,0.6
		c-2.7,0-4.9-0.3-6.7-0.9c-1.8-0.6-3.3-1.3-4.5-2c-1.2-0.7-2.1-1.4-2.8-2c-0.7-0.6-1.3-0.9-1.8-0.9c-0.4,0-0.7,0.1-1.1,0.3
		c-0.3,0.2-0.7,0.5-1,1s-0.7,1.1-1,1.9c-0.3,0.8-0.7,1.7-1.1,2.8c-0.6,1.7-1,3-1.1,3.8c-0.1,0.9,0,1.6,0.3,2c0.3,0.5,0.9,1,1.7,1.6
		c0.8,0.6,2,1.2,3.4,1.8s3.1,1,5,1.4c1.9,0.4,4.1,0.6,6.6,0.6c3.6,0,7.1-0.5,10.6-1.4c3.5-0.9,6.8-2.4,9.8-4.2c3-1.9,5.8-4.2,8.2-7
		c2.4-2.8,4.3-6,5.6-9.7c1-2.8,1.5-5.3,1.4-7.4c-0.1-2.1-0.6-3.9-1.4-5.4c-0.9-1.5-2-2.9-3.4-4c-1.4-1.1-2.9-2.1-4.5-3
		c-1.6-0.9-3.1-1.7-4.6-2.5s-2.8-1.6-4-2.5c-1.1-0.9-1.9-1.9-2.3-3c-0.4-1.1-0.4-2.5,0.2-4.1c0.4-1,0.9-2,1.7-3
		c0.7-0.9,1.6-1.7,2.6-2.4c1-0.7,2.2-1.2,3.5-1.6s2.7-0.6,4.3-0.6c2,0,3.7,0.2,5.2,0.7c1.5,0.5,2.8,1,3.8,1.6c1,0.6,1.9,1.1,2.6,1.7
		c0.7,0.5,1.2,0.8,1.6,0.8c0.4,0,0.8-0.1,1.1-0.3s0.6-0.6,0.9-1c0.3-0.5,0.6-1.1,0.9-1.8c0.3-0.7,0.7-1.6,1.1-2.7
		c0.3-0.9,0.6-1.7,0.8-2.4c0.2-0.6,0.3-1.2,0.4-1.6c0.1-0.4,0.1-0.8,0-1c0-0.3-0.2-0.6-0.4-0.9s-0.8-0.8-1.7-1.4
		c-0.9-0.5-2-1-3.3-1.5c-1.3-0.4-2.7-0.8-4.3-1C432.9,470.7,431.3,470.6,429.6,470.6L429.6,470.6z M655.6,470.6
		c-5.5,0-10.9,0.9-16,2.6s-9.9,4.2-14.3,7.4c-4.4,3.2-8.3,7.1-11.7,11.7c-3.4,4.6-6.2,9.8-8.3,15.5c-2,5.6-3,10.6-3,15
		c0,4.4,1,8.2,3,11.2c2,3.1,4.9,5.4,8.7,7c3.8,1.6,8.6,2.4,14.2,2.4c1.9,0,3.9-0.1,5.8-0.3c2-0.2,4-0.5,6-0.8c2-0.4,4-0.8,5.9-1.3
		s3.6-1,4.9-1.5c1.4-0.5,2.4-1.1,3.1-1.9c0.7-0.8,1.2-1.8,1.6-2.9l10.2-28c0.3-0.7,0.4-1.4,0.4-1.9c0-0.6-0.1-1-0.3-1.4
		c-0.2-0.4-0.5-0.7-0.9-0.9c-0.4-0.2-0.9-0.3-1.4-0.3h-23.8c-0.3,0-0.7,0.1-1,0.3c-0.3,0.2-0.7,0.5-1,0.9c-0.3,0.4-0.7,1-1,1.7
		c-0.3,0.7-0.7,1.5-1.1,2.5c-0.7,2-1,3.4-1,4.2c0.1,0.8,0.4,1.2,1.1,1.2h13.3l-5.9,16.3c-1.6,0.7-3.3,1.3-4.9,1.6
		c-1.7,0.4-3.3,0.5-4.9,0.5c-3.3,0-6.1-0.5-8.4-1.6c-2.3-1.1-4.1-2.6-5.2-4.7c-1.2-2.1-1.7-4.6-1.7-7.7c0-3.1,0.8-6.6,2.3-10.6
		c1.3-3.7,3.1-7,5.2-10c2.1-3,4.6-5.6,7.3-7.8c2.8-2.2,5.7-3.8,8.9-5c3.2-1.2,6.5-1.8,9.9-1.8c3.2,0,5.9,0.3,8.1,1
		c2.2,0.7,4,1.4,5.5,2.1c1.5,0.8,2.6,1.5,3.4,2.1c0.8,0.7,1.5,1,1.9,1c0.3,0,0.6-0.1,0.9-0.3c0.3-0.2,0.6-0.5,1-1
		c0.3-0.5,0.7-1.1,1-1.8c0.4-0.8,0.7-1.7,1.1-2.7c0.7-1.8,1.1-3.2,1.2-4.1c0.1-0.9,0-1.6-0.3-2.1c-0.3-0.5-1-1.1-1.9-1.8
		c-1-0.7-2.3-1.3-4-1.9c-1.6-0.6-3.6-1.1-6-1.5C661.4,470.8,658.7,470.6,655.6,470.6z M210.7,471.5c-1.9,0-3.3,0-4.4,0.1
		c-1.1,0.1-1.9,0.3-2.5,0.7c-0.6,0.4-1,1-1.2,1.7c-0.2,0.7-0.4,1.8-0.6,3.1l-6.4,61.4c-0.1,0.9-0.1,1.6,0,2.1
		c0.1,0.5,0.5,0.9,1.1,1.2c0.6,0.3,1.5,0.5,2.8,0.5c1.2,0.1,2.9,0.1,5,0.1c2,0,3.6,0,4.9-0.1c1.2-0.1,2.3-0.3,3.1-0.6
		c0.8-0.3,1.5-0.7,2-1.2c0.5-0.5,1-1.2,1.5-2L243,494h0.1l-5,44.6c-0.1,0.9-0.1,1.6,0,2.1c0.1,0.5,0.5,0.9,1.1,1.2
		c0.6,0.3,1.5,0.5,2.8,0.5c1.2,0.1,2.9,0.1,4.9,0.1c1.8,0,3.4,0,4.6-0.1c1.2-0.1,2.3-0.3,3.1-0.5c0.9-0.3,1.6-0.7,2.1-1.2
		c0.6-0.5,1.1-1.2,1.7-2.1l38.5-61.3c0.8-1.3,1.4-2.4,1.7-3.2c0.3-0.8,0.4-1.4,0.1-1.8c-0.3-0.4-0.8-0.6-1.7-0.7
		c-0.9-0.1-2.1-0.1-3.7-0.1c-1.7,0-3.1,0-4,0.1c-1,0.1-1.8,0.3-2.4,0.5c-0.6,0.2-1.1,0.6-1.4,1c-0.3,0.4-0.7,0.9-1,1.5l-31.9,53.8
		h-0.1l6.2-53.6c0.1-0.7,0.1-1.3,0-1.7c-0.1-0.4-0.4-0.8-0.9-1c-0.5-0.2-1.2-0.4-2.2-0.5c-1-0.1-2.4-0.1-4.1-0.1c-1.6,0-3,0-4,0.1
		c-1,0.1-1.8,0.3-2.5,0.5c-0.7,0.2-1.2,0.6-1.6,1c-0.4,0.4-0.8,1-1.2,1.7l-32.3,53.6h-0.1l7.3-53.9c0.1-0.7,0.2-1.2,0.1-1.6
		c0-0.4-0.3-0.7-0.7-0.9c-0.4-0.2-1.1-0.3-2.1-0.4C213.8,471.5,212.4,471.5,210.7,471.5L210.7,471.5z M380.6,471.5
		c-1.4,0-2.5,0.1-3.5,0.2c-0.9,0.1-1.7,0.3-2.4,0.4c-0.6,0.2-1.1,0.4-1.5,0.7c-0.3,0.3-0.6,0.6-0.7,1l-24.2,66.5
		c-0.1,0.4-0.1,0.7,0,1c0.1,0.3,0.4,0.5,0.9,0.7c0.5,0.2,1.2,0.3,2.1,0.4c0.9,0.1,2,0.2,3.4,0.2c1.4,0,2.6-0.1,3.5-0.2
		c0.9-0.1,1.7-0.3,2.3-0.4c0.6-0.2,1.1-0.4,1.4-0.7c0.3-0.3,0.6-0.6,0.7-1l24.2-66.5c0.1-0.4,0.1-0.7,0-1c-0.1-0.3-0.4-0.5-0.9-0.7
		c-0.5-0.2-1.1-0.3-2-0.4C383.1,471.5,382,471.5,380.6,471.5L380.6,471.5z M-54.8,471.5c-1.4,0-2.6,0.1-3.5,0.2
		c-0.9,0.1-1.7,0.3-2.4,0.4c-0.6,0.2-1.1,0.4-1.4,0.7c-0.3,0.3-0.6,0.6-0.7,1l-15.6,42.8c-1.6,4.5-2.4,8.4-2.4,11.8
		c0.1,3.4,0.9,6.2,2.5,8.4c1.6,2.3,4,3.9,7.1,5c3.1,1.1,6.9,1.7,11.3,1.7c4.7,0,9.1-0.6,13.2-1.8c4.1-1.2,7.8-3,11.1-5.4
		c3.3-2.4,6.2-5.2,8.8-8.7c2.5-3.4,4.6-7.3,6.1-11.6l15.4-42.2c0.1-0.4,0.1-0.7,0-1c-0.1-0.3-0.4-0.5-0.9-0.7
		c-0.5-0.2-1.1-0.3-2-0.4c-0.8-0.1-2-0.2-3.3-0.2c-1.4,0-2.5,0.1-3.5,0.2c-1,0.1-1.7,0.3-2.4,0.4c-0.6,0.2-1.1,0.4-1.4,0.7
		c-0.3,0.3-0.5,0.6-0.7,1l-15.4,42.4c-0.9,2.5-2,4.7-3.4,6.6c-1.4,1.9-2.9,3.6-4.6,4.9c-1.7,1.3-3.6,2.3-5.6,3c-2,0.7-4.2,1-6.4,1
		c-2.2,0-4.1-0.3-5.7-1c-1.5-0.7-2.7-1.7-3.5-3c-0.8-1.3-1.2-3-1.1-5.1c0.1-2,0.6-4.5,1.6-7.3l15.1-41.6c0.1-0.4,0.1-0.7,0-1
		c-0.1-0.3-0.4-0.5-0.9-0.7c-0.5-0.2-1.2-0.3-2-0.4C-52.3,471.6-53.4,471.5-54.8,471.5L-54.8,471.5z M473.2,471.5
		c-1.4,0-2.6,0.1-3.5,0.2c-0.9,0.1-1.7,0.3-2.4,0.4c-0.6,0.2-1.1,0.4-1.4,0.7c-0.3,0.3-0.5,0.6-0.7,1l-15.6,42.8
		c-1.6,4.5-2.4,8.4-2.4,11.8c0.1,3.4,0.9,6.2,2.5,8.4c1.6,2.3,4,3.9,7.1,5c3.1,1.1,6.9,1.7,11.3,1.7c4.7,0,9.1-0.6,13.2-1.8
		c4.1-1.2,7.8-3,11.1-5.4c3.3-2.4,6.2-5.2,8.8-8.7c2.5-3.4,4.5-7.3,6.1-11.6l15.4-42.2c0.1-0.4,0.1-0.7,0-1
		c-0.1-0.3-0.4-0.5-0.9-0.7c-0.5-0.2-1.1-0.3-2-0.4c-0.8-0.1-2-0.2-3.3-0.2s-2.5,0.1-3.5,0.2c-1,0.1-1.7,0.3-2.4,0.4
		c-0.6,0.2-1.1,0.4-1.4,0.7c-0.3,0.3-0.5,0.6-0.7,1l-15.4,42.4c-0.9,2.5-2,4.7-3.4,6.6c-1.4,1.9-2.9,3.6-4.6,4.9
		c-1.7,1.3-3.6,2.3-5.6,3c-2,0.7-4.2,1-6.4,1c-2.2,0-4.1-0.3-5.6-1c-1.5-0.7-2.7-1.7-3.5-3c-0.8-1.3-1.2-3-1.1-5.1
		c0-2,0.6-4.5,1.6-7.3l15.1-41.6c0.1-0.4,0.1-0.7,0-1c-0.1-0.3-0.4-0.5-0.9-0.7c-0.5-0.2-1.2-0.3-2-0.4
		C475.7,471.6,474.5,471.5,473.2,471.5L473.2,471.5z M595.5,471.6c-1.3,0-2.4,0-3.3,0.1c-0.9,0.1-1.6,0.2-2.2,0.5
		c-0.6,0.2-1,0.5-1.4,0.8c-0.3,0.3-0.6,0.6-0.7,1l-12,33c-0.9,2.5-1.8,5.1-2.8,7.9c-1,2.8-1.8,5.4-2.6,7.9h-0.1
		c-0.1-1.5-0.3-2.9-0.4-4.4c-0.2-1.5-0.3-2.9-0.5-4.4c-0.2-1.5-0.4-3-0.6-4.5c-0.2-1.5-0.5-3-0.7-4.6l-4.3-25.7
		c-0.2-1.4-0.4-2.6-0.7-3.6c-0.3-1-0.7-1.7-1.3-2.3c-0.6-0.5-1.3-0.9-2.1-1.2c-0.9-0.2-2-0.3-3.4-0.3h-7.7c-1.4,0-2.8,0.4-4.1,1.3
		c-1.3,0.9-2.3,2.1-2.9,3.8l-23,63.3c-0.1,0.4-0.2,0.7-0.1,1c0.1,0.3,0.3,0.5,0.7,0.7c0.4,0.2,1,0.4,1.8,0.5
		c0.8,0.1,1.8,0.2,3.1,0.2c1.3,0,2.4-0.1,3.3-0.2c0.9-0.1,1.6-0.3,2.1-0.5c0.6-0.2,1-0.4,1.3-0.7c0.3-0.3,0.5-0.6,0.6-1l13.4-36.8
		c1-2.8,1.9-5.4,2.8-8c0.9-2.6,1.7-5.2,2.5-7.8h0.1c0,2.1,0.2,4.3,0.4,6.6c0.2,2.3,0.5,4.4,0.8,6.3l5.5,32.9
		c0.3,1.8,0.5,3.3,0.8,4.4c0.3,1.1,0.7,2,1.3,2.7c0.5,0.7,1.2,1.1,2.1,1.4c0.8,0.3,1.9,0.4,3.2,0.4h6.1c0.7,0,1.4-0.1,2.2-0.3
		c0.7-0.2,1.4-0.5,2.1-1c0.6-0.4,1.2-1,1.8-1.6c0.5-0.7,0.9-1.4,1.2-2.2l23-63.3c0.1-0.4,0.2-0.7,0.1-1c-0.1-0.3-0.3-0.5-0.7-0.8
		s-1-0.4-1.8-0.5C597.8,471.7,596.8,471.6,595.5,471.6L595.5,471.6z M87.4,471.8c-1.2,0-2.3,0.4-3.4,1.1c-1.1,0.7-1.9,1.9-2.5,3.5
		l-22.3,61.4c-0.6,1.6-0.6,2.8,0,3.5c0.6,0.7,1.4,1.1,2.6,1.1h35.4c0.3,0,0.7-0.1,1-0.3c0.3-0.2,0.7-0.5,1-0.9c0.3-0.4,0.7-1,1-1.7
		c0.3-0.7,0.7-1.6,1.1-2.6c0.4-1,0.7-1.9,0.8-2.6c0.2-0.7,0.2-1.3,0.2-1.7c0-0.4-0.1-0.7-0.3-1c-0.2-0.2-0.5-0.3-0.8-0.3H75.9
		l7.2-19.9h21.3c0.3,0,0.7-0.1,1-0.3c0.3-0.2,0.7-0.5,1-0.9c0.3-0.4,0.7-1,1-1.7c0.3-0.7,0.7-1.6,1.1-2.6c0.4-1,0.6-1.9,0.8-2.6
		c0.2-0.7,0.2-1.3,0.2-1.7c0-0.4-0.1-0.7-0.3-0.9c-0.2-0.2-0.5-0.3-0.8-0.3H87.1l6.2-17.2h25.1c0.3,0,0.7-0.1,1-0.3
		c0.3-0.2,0.7-0.5,1-1c0.3-0.4,0.7-1,1-1.7c0.3-0.7,0.7-1.6,1.1-2.6c0.4-1.1,0.7-2,0.8-2.7c0.2-0.7,0.2-1.3,0.2-1.7
		c0-0.4-0.1-0.8-0.3-0.9c-0.2-0.2-0.4-0.3-0.8-0.3L87.4,471.8L87.4,471.8z M146.5,471.8c-1.2,0-2.3,0.4-3.4,1.1
		c-1.1,0.7-1.9,1.9-2.5,3.5l-23.3,63.9c-0.1,0.4-0.1,0.7,0,1c0.1,0.3,0.4,0.5,0.9,0.7c0.5,0.2,1.2,0.3,2,0.4c0.9,0.1,2,0.2,3.4,0.2
		c1.4,0,2.6-0.1,3.5-0.2c1-0.1,1.7-0.3,2.3-0.4c0.6-0.2,1.1-0.4,1.4-0.7c0.3-0.3,0.6-0.6,0.7-1l9.8-26.8h4.5c1.5,0,2.8,0.2,3.8,0.7
		c1,0.5,1.8,1.2,2.3,2.1s0.9,2.1,1.2,3.5c0.2,1.4,0.4,3,0.5,4.7l0.6,15.7c0,0.4,0,0.8,0.1,1.1c0.1,0.3,0.4,0.6,0.8,0.8
		c0.4,0.2,1.1,0.3,2,0.4c0.9,0.1,2.1,0.1,3.6,0.1c1.8,0,3.3,0,4.3-0.1c1.1-0.1,1.9-0.2,2.5-0.4c0.6-0.2,1-0.4,1.3-0.7
		c0.2-0.3,0.4-0.6,0.6-1c0.1-0.4,0.2-0.9,0.3-1.5c0-0.6,0.1-1.6,0-3l-0.9-13.9c-0.1-1.7-0.2-3.2-0.5-4.5c-0.2-1.3-0.6-2.5-1-3.5
		c-0.4-1-1-1.9-1.7-2.6c-0.7-0.7-1.4-1.3-2.3-1.8c2.4-0.7,4.7-1.6,6.8-2.7c2.1-1.1,4-2.4,5.7-4c1.7-1.5,3.2-3.2,4.5-5.2
		c1.3-1.9,2.4-4.1,3.2-6.4c1-2.8,1.5-5.3,1.5-7.4c-0.1-2.2-0.6-4-1.6-5.6c-1-1.6-2.5-2.9-4.4-3.8c-1.9-1-4.2-1.7-6.9-2.1
		c-0.9-0.1-2-0.2-3.2-0.3c-1.2-0.1-2.7-0.1-4.5-0.1L146.5,471.8L146.5,471.8z M318.4,471.8c-1.2,0-2.3,0.4-3.4,1.1
		c-1.1,0.7-1.9,1.9-2.5,3.5l-22.3,61.4c-0.6,1.6-0.6,2.8,0,3.5c0.6,0.7,1.4,1.1,2.6,1.1h35.4c0.3,0,0.7-0.1,1-0.3
		c0.3-0.2,0.7-0.5,1-0.9c0.4-0.4,0.7-1,1-1.7c0.3-0.7,0.7-1.6,1.1-2.6h0c0.4-1,0.7-1.9,0.8-2.6c0.2-0.7,0.2-1.3,0.2-1.7
		c0-0.4-0.1-0.7-0.3-1c-0.2-0.2-0.5-0.3-0.8-0.3h-25.4l7.2-19.9h21.3c0.3,0,0.7-0.1,1-0.3c0.3-0.2,0.7-0.5,1-0.9s0.7-1,1-1.7
		s0.7-1.6,1.1-2.6c0.4-1,0.6-1.9,0.8-2.6c0.2-0.7,0.2-1.3,0.2-1.7c0-0.4-0.1-0.7-0.3-0.9c-0.2-0.2-0.5-0.3-0.8-0.3h-21.3l6.3-17.2
		h25.1c0.3,0,0.7-0.1,1-0.3c0.3-0.2,0.7-0.5,1-1c0.3-0.4,0.7-1,1-1.7c0.4-0.7,0.7-1.6,1.1-2.6c0.4-1.1,0.7-2,0.8-2.7
		c0.2-0.7,0.2-1.3,0.2-1.7c0-0.4-0.1-0.8-0.3-0.9c-0.2-0.2-0.4-0.3-0.8-0.3L318.4,471.8L318.4,471.8z M19.9,471.8
		c-1.2,0-2.3,0.4-3.4,1.1c-1.1,0.7-1.9,1.9-2.5,3.5l-22.3,61.4c-0.6,1.6-0.6,2.7,0,3.5s1.4,1.1,2.6,1.1H13c2.8,0,5.5-0.2,7.9-0.5
		c2.4-0.3,4.8-0.9,7.1-1.6c2.3-0.7,4.5-1.7,6.6-2.8c2.1-1.1,4-2.5,5.8-4c1.8-1.6,3.4-3.4,4.8-5.4c1.4-2,2.6-4.3,3.5-6.8
		c0.9-2.4,1.3-4.6,1.3-6.5c0-1.9-0.4-3.6-1.1-5c-0.7-1.4-1.8-2.6-3.1-3.5c-1.4-0.9-3-1.5-4.8-1.9c1.8-0.6,3.4-1.3,5-2.3
		c1.6-0.9,3-2,4.3-3.3c1.3-1.2,2.4-2.6,3.4-4.1s1.8-3.1,2.4-4.8c1.1-3,1.5-5.7,1.3-7.9c-0.3-2.3-1.2-4.1-2.7-5.6
		c-1.5-1.5-3.6-2.6-6.4-3.3c-2.7-0.7-6.2-1.1-10.6-1.1C37.6,471.8,19.9,471.8,19.9,471.8z M25.8,482.5H33c2.2,0,3.9,0.2,5.1,0.6
		c1.2,0.4,2.1,1,2.7,1.7c0.6,0.7,0.9,1.7,0.9,2.8c0,1.1-0.2,2.4-0.7,3.8c-0.5,1.3-1.1,2.5-1.9,3.6c-0.8,1.1-1.8,2.1-2.9,3
		c-1.1,0.9-2.4,1.5-3.8,2c-1.4,0.5-3.1,0.7-5.2,0.7h-8C19.1,500.8,25.8,482.5,25.8,482.5z M152.6,482.8h6.4c1.6,0,2.9,0.1,3.8,0.2
		c0.9,0.1,1.7,0.3,2.3,0.4c2.2,0.7,3.5,1.8,3.9,3.4c0.5,1.6,0.3,3.6-0.6,5.9c-0.6,1.5-1.3,2.9-2.3,4.1c-1,1.2-2.1,2.3-3.4,3.2
		c-1.3,0.9-2.9,1.6-4.6,2.1c-1.7,0.5-3.6,0.7-5.6,0.7h-7.3L152.6,482.8z M15.3,511.3h8.5c2.6,0,4.6,0.2,6.1,0.7
		c1.5,0.5,2.6,1.1,3.3,2c0.7,0.9,1.1,2,1.2,3.2c0.1,1.3-0.2,2.7-0.8,4.4c-0.6,1.6-1.4,3-2.4,4.2c-1,1.2-2.2,2.2-3.5,3
		c-1.3,0.8-2.7,1.4-4.2,1.9c-1.5,0.4-3.3,0.6-5.2,0.6H8.1C8.1,531.3,15.3,511.3,15.3,511.3z"/>
</g>
</svg>
