<?xml version="1.0" encoding="utf-8"?>
<!-- Generator: Adobe Illustrator 19.2.1, SVG Export Plug-In . SVG Version: 6.00 Build 0)  -->
<svg version="1.1" id="Layer_1" xmlns="http://www.w3.org/2000/svg" xmlns:xlink="http://www.w3.org/1999/xlink" x="0px" y="0px"
	 viewBox="0 0 610.5 527" style="enable-background:new 0 0 610.5 527;" xml:space="preserve">
<style type="text/css">
	.st0{display:none;}
	.st1{display:inline;}
	.st2{clip-path:url(#SVGID_2_);}
	.st3{fill:#CD0067;}
	.st4{fill:#FFFFFF;}
</style>
<g id="Layer_1_1_" class="st0">
	<g class="st1">
		<g>
			<g>
				<defs>
					<rect id="SVGID_1_" x="-101.1" y="-101" width="822.4" height="740.1"/>
				</defs>
				<clipPath id="SVGID_2_">
					<use xlink:href="#SVGID_1_"  style="overflow:visible;"/>
				</clipPath>
				<g class="st2">
					
						<image style="overflow:visible;enable-background:new    ;" width="113" height="102" xlink:href="B4437A3FA3B48CB4.jpeg"  transform="matrix(7.1803 0 0 7.162 -98.3593 -98.2484)">
					</image>
				</g>
			</g>
		</g>
	</g>
</g>
<g id="Layer_2">
	<rect x="67.2" y="296.6" width="96.9" height="160.8"/>
	<ellipse cx="116.5" cy="216.2" rx="54.8" ry="54.8"/>
	<g>
		<g>
			<path d="M347.5,0H0v527h347.5v-0.1c75.9-1,136-19.9,178.7-56.2c51.9-44.2,78.2-113.9,78.2-207.2c0-44.6-6.9-84.6-20.6-118.9
				c-13.1-32.8-32.4-60.7-57.4-82.9c-44-39.1-105.8-60.3-179-61.5C347.5,0.1,347.5,0,347.5,0z M340.9,35
				c67.3,0,123.5,18.2,162.3,52.8c43.9,39,66.2,98.1,66.2,175.7c0,153.7-74.7,228.5-228.5,228.5c-11.9,0-275.2,0-305.9,0
				c0-31.4,0-425.6,0-457C65.7,35,329,35,340.9,35z"/>
		</g>
	</g>
	<g>
		<g>
			<path class="st3" d="M331.4,457.6H208.5v-380h122.8h-5c102.5,0,211.5,40.4,211.5,190.5c0,158.7-109.1,189.5-211.5,189.5H331.4z"
				/>
		</g>
	</g>
</g>
<g id="Layer_3">
	<g>
		<g>
			<path class="st4" d="M187.3,175.7H221c7.6,0,13.4,0.6,17.4,1.7c5.4,1.6,10,4.4,13.8,8.4s6.7,9,8.7,14.8s3,13,3,21.6
				c0,7.5-0.9,14-2.8,19.5c-2.3,6.7-5.5,12-9.8,16.2c-3.2,3.1-7.5,5.6-13,7.3c-4.1,1.3-9.5,1.9-16.3,1.9h-34.7L187.3,175.7
				L187.3,175.7z M205.8,191.2v60.4h13.8c5.2,0,8.9-0.3,11.2-0.9c3-0.7,5.5-2,7.5-3.8s3.6-4.7,4.8-8.8c1.2-4.1,1.9-9.7,1.9-16.7
				c0-7.1-0.6-12.5-1.9-16.2c-1.2-3.8-3-6.7-5.2-8.8c-2.2-2.1-5.1-3.5-8.6-4.3c-2.6-0.6-7.6-0.9-15.2-0.9L205.8,191.2L205.8,191.2z"
				/>
			<path class="st4" d="M184.8,173.2v96.4H222c7,0,12.8-0.7,17.1-2.1c5.8-1.9,10.5-4.5,14-7.9c4.5-4.4,8-10.1,10.4-17.1
				c2-5.7,2.9-12.5,2.9-20.3c0-8.8-1.1-16.3-3.1-22.4c-2.1-6.2-5.2-11.4-9.3-15.7c-4.1-4.3-9.1-7.4-14.9-9.1
				c-4.3-1.2-10.2-1.8-18.1-1.8H184.8z M221.1,178.2c7.3,0,13,0.6,16.7,1.6c4.9,1.4,9.2,4,12.7,7.7c3.6,3.8,6.3,8.4,8.2,13.9
				c1.9,5.6,2.9,12.6,2.9,20.8c0,7.2-0.9,13.5-2.7,18.6c-2.1,6.2-5.2,11.4-9.2,15.2c-2.9,2.8-6.9,5.1-12,6.7
				c-3.8,1.2-9,1.8-15.6,1.8c0,0-27.9,0-32.2,0c0-4.6,0-81.8,0-86.4C194.1,178.2,221.1,178.2,221.1,178.2z"/>
			<path class="st4" d="M203.3,188.7v65.4h16.3c5.4,0,9.3-0.3,11.8-0.9c3.4-0.8,6.2-2.3,8.5-4.4s4.2-5.4,5.6-9.9
				c1.3-4.4,2-10.1,2-17.4c0-7.4-0.7-13-2-17c-1.4-4.2-3.4-7.5-5.9-9.9c-2.6-2.4-5.9-4.1-9.7-4.9c-2.8-0.6-7.9-0.9-15.7-0.9h-10.9
				V188.7z M214.1,193.7c9.1,0,13,0.4,14.6,0.8c3,0.7,5.5,1.9,7.4,3.7c1.9,1.8,3.5,4.4,4.6,7.8c1.2,3.5,1.7,8.7,1.7,15.5
				s-0.6,12.1-1.8,16c-1.1,3.6-2.5,6.2-4.1,7.7c-1.7,1.5-3.8,2.6-6.4,3.2c-2.1,0.5-5.6,0.8-10.6,0.8c0,0-8,0-11.3,0
				c0-4.4,0-51,0-55.4C210.7,193.7,214.1,193.7,214.1,193.7z"/>
		</g>
		<g>
			<path class="st4" d="M284.8,267.1v-91.4h67.7v15.5h-49.2v20.2h45.8v15.5h-45.8v24.7h51v15.5L284.8,267.1L284.8,267.1z"/>
			<path class="st4" d="M282.3,173.2v96.4h74.4v-20.5c0,0-46.5,0-51,0c0-3.6,0-16.1,0-19.7c4.5,0,45.8,0,45.8,0v-20.5
				c0,0-41.3,0-45.8,0c0-3.3,0-11.9,0-15.2c4.5,0,49.2,0,49.2,0v-20.5L282.3,173.2L282.3,173.2z M350,178.2c0,2.8,0,7.7,0,10.5
				c-4.5,0-49.2,0-49.2,0v25.2c0,0,41.3,0,45.8,0c0,2.8,0,7.7,0,10.5c-4.5,0-45.8,0-45.8,0v29.7c0,0,46.5,0,51,0c0,2.8,0,7.7,0,10.5
				c-4.5,0-60,0-64.4,0c0-4.6,0-81.8,0-86.4C291.8,178.2,345.5,178.2,350,178.2z"/>
		</g>
		<g>
			<path class="st4" d="M457.5,267.1h-20.1l-8-20.8h-36.5l-7.6,20.8h-19.6l35.5-91.4h19.7L457.5,267.1z M423.5,230.9L410.9,197
				l-12.3,33.9H423.5z"/>
			<path class="st4" d="M399.6,173.2l-37.5,96.4h25c0,0,6.6-18,7.6-20.8c3,0,30.1,0,33.1,0c1,2.7,8,20.8,8,20.8h25.5l-38.6-96.4
				H399.6z M419.2,178.2c1.2,2.9,32.1,80.2,34.6,86.4c-4.4,0-12.4,0-14.7,0c-1-2.7-8-20.8-8-20.8h-40c0,0-6.6,18-7.6,20.8
				c-2.3,0-9.9,0-14.2,0c2.4-6.2,32.4-83.5,33.6-86.4C405.6,178.2,416.7,178.2,419.2,178.2z"/>
			<path class="st4" d="M395,233.4h32.1l-16.2-43.6L395,233.4z M410.9,204.3c2.7,7.4,7.4,19.8,9,24.1c-4.4,0-13.4,0-17.8,0
				C403.7,224.1,408.2,211.6,410.9,204.3z"/>
		</g>
		<g>
			<path class="st4" d="M472.9,267.1v-90.7h18.4v75.2h45.9v15.5H472.9z"/>
			<path class="st4" d="M470.4,174v95.7h69.4v-20.5c0,0-41.5,0-45.9,0c0-4.7,0-75.2,0-75.2L470.4,174L470.4,174z M488.9,179
				c0,4.7,0,75.2,0,75.2s41.5,0,45.9,0c0,2.8,0,7.7,0,10.5c-4.4,0-54.9,0-59.4,0c0-4.6,0-81.1,0-85.7C478.6,179,485.7,179,488.9,179
				z"/>
		</g>
	</g>
</g>
</svg>
